<svg width="28" height="23" viewBox="0 0 28 23" fill="none" xmlns="http://www.w3.org/2000/svg">
<path d="M15.756 20.9343L12.2196 18.5938V19.574C9.72285 19.5472 3.61105 19.2312 2.50782 16.7961C1.36338 14.2663 4.29285 11.8794 4.29285 11.8794C0.548597 13.354 -1.85454 17.046 1.8485 19.9453C4.70867 22.184 9.97384 22.2804 12.2215 22.2072V22.9999L15.7579 20.9343H15.756Z" fill="black"/>
<path d="M23.6154 11.8794C23.6154 11.8794 26.5449 14.2663 25.4005 16.7943C24.1867 19.474 16.9043 19.5882 15.0537 19.574L17.1084 20.9343L14.9844 22.1751C16.5484 22.2679 22.8363 22.4697 26.0617 19.9453C29.7628 17.0478 27.3616 13.3558 23.6154 11.8794Z" fill="black"/>
<path d="M20.7859 10.0685C20.107 10.066 19.5228 9.90727 19.0333 9.59222C18.5465 9.27717 18.1715 8.82085 17.9084 8.22325C17.6478 7.62566 17.5189 6.90679 17.5215 6.06666C17.5215 5.22902 17.6518 4.51516 17.9123 3.92507C18.1755 3.33497 18.5504 2.88615 19.0373 2.5786C19.5267 2.26855 20.1096 2.11353 20.7859 2.11353C21.4622 2.11353 22.0438 2.26855 22.5306 2.5786C23.0201 2.88865 23.3964 3.33872 23.6595 3.92882C23.9227 4.51641 24.0529 5.22902 24.0503 6.06666C24.0503 6.90929 23.9187 7.62941 23.6556 8.227C23.3951 8.8246 23.0214 9.28092 22.5345 9.59597C22.0477 9.91102 21.4648 10.0685 20.7859 10.0685ZM20.7859 8.72208C21.2491 8.72208 21.6188 8.5008 21.8951 8.05823C22.1714 7.61566 22.3082 6.9518 22.3056 6.06666C22.3056 5.48407 22.2425 4.99899 22.1161 4.61142C21.9925 4.22386 21.8161 3.93257 21.5872 3.73753C21.3609 3.5425 21.0938 3.44499 20.7859 3.44499C20.3254 3.44499 19.957 3.66377 19.6807 4.10134C19.4044 4.53891 19.2649 5.19402 19.2623 6.06666C19.2623 6.65675 19.3241 7.14933 19.4478 7.54439C19.5741 7.93696 19.7517 8.232 19.9807 8.42954C20.2096 8.62457 20.478 8.72208 20.7859 8.72208Z" fill="black"/>
<path d="M13.3802 10.0048C12.9644 10.0023 12.5631 9.93603 12.1763 9.80601C11.7921 9.67599 11.4474 9.4647 11.1421 9.17216C10.8369 8.87961 10.5948 8.49205 10.4158 8.00947C10.2395 7.52689 10.1514 6.9343 10.1514 6.23168C10.154 5.58658 10.2316 5.01024 10.3843 4.50266C10.5395 3.99258 10.7606 3.56001 11.0474 3.20495C11.3369 2.84989 11.6829 2.57985 12.0855 2.39482C12.4881 2.20729 12.9394 2.11353 13.4394 2.11353C13.9789 2.11353 14.4552 2.21354 14.8683 2.41357C15.2815 2.61111 15.6131 2.8799 15.8631 3.21995C16.1157 3.56001 16.2683 3.94132 16.3209 4.36389H14.6355C14.5697 4.09634 14.4315 3.88631 14.221 3.73379C14.0105 3.58126 13.75 3.505 13.4394 3.505C12.9131 3.505 12.5131 3.72253 12.2395 4.1576C11.9684 4.59267 11.8303 5.18402 11.825 5.93164H11.8803C12.0013 5.7041 12.1645 5.51032 12.3697 5.35029C12.5776 5.18777 12.8131 5.064 13.0763 4.97898C13.3421 4.89147 13.6223 4.84771 13.9171 4.84771C14.396 4.84771 14.8223 4.95523 15.196 5.17026C15.5696 5.3828 15.8644 5.67535 16.0802 6.0479C16.2959 6.42046 16.4038 6.84678 16.4038 7.32686C16.4038 7.84694 16.2762 8.30952 16.0209 8.71458C15.7683 9.11965 15.4144 9.4372 14.9591 9.66723C14.5065 9.89477 13.9802 10.0073 13.3802 10.0048ZM13.3723 8.72958C13.6355 8.72958 13.871 8.66958 14.0789 8.54956C14.2868 8.42954 14.4499 8.26701 14.5684 8.06198C14.6868 7.85695 14.746 7.62691 14.746 7.37187C14.746 7.11683 14.6868 6.88804 14.5684 6.68551C14.4526 6.48298 14.292 6.3217 14.0868 6.20168C13.8815 6.08166 13.6473 6.02165 13.3842 6.02165C13.1868 6.02165 13.0039 6.05666 12.8355 6.12667C12.6697 6.19668 12.5237 6.29419 12.3974 6.41921C12.2737 6.54423 12.1763 6.68926 12.1053 6.85428C12.0342 7.01681 11.9987 7.19059 11.9987 7.37562C11.9987 7.62316 12.0579 7.84944 12.1763 8.05448C12.2974 8.25951 12.4605 8.42329 12.6658 8.54581C12.8737 8.66832 13.1092 8.72958 13.3723 8.72958Z" fill="black"/>
<path d="M5.94105 10.0048C5.35159 10.0048 4.8266 9.90852 4.36609 9.71599C3.90821 9.52096 3.54637 9.25342 3.28059 8.91336C3.01744 8.57081 2.88192 8.17575 2.87402 7.72817H4.59503C4.60556 7.9157 4.67003 8.08073 4.78845 8.22325C4.90949 8.36328 5.07002 8.47204 5.27001 8.54956C5.47001 8.62707 5.695 8.66582 5.94499 8.66582C6.20551 8.66582 6.43577 8.62207 6.63576 8.53455C6.83576 8.44704 6.99233 8.32577 7.10549 8.17074C7.21864 8.01572 7.27522 7.83694 7.27522 7.63441C7.27522 7.42938 7.2147 7.2481 7.09365 7.09057C6.97523 6.93055 6.80418 6.80553 6.5805 6.71551C6.35946 6.6255 6.0963 6.58049 5.79105 6.58049H5.03712V5.3878H5.79105C6.04894 5.3878 6.27656 5.34529 6.47393 5.26028C6.67392 5.17527 6.82918 5.05775 6.9397 4.90772C7.05023 4.7552 7.10549 4.57767 7.10549 4.37514C7.10549 4.18261 7.05681 4.01383 6.95944 3.86881C6.8647 3.72128 6.7305 3.60626 6.55682 3.52375C6.38577 3.44124 6.18578 3.39998 5.95683 3.39998C5.72526 3.39998 5.51343 3.43999 5.32133 3.52C5.12923 3.59751 4.97528 3.70878 4.8595 3.8538C4.74371 3.99883 4.68187 4.16885 4.67397 4.36389H3.03586C3.04376 3.92131 3.17665 3.53125 3.43453 3.1937C3.69242 2.85614 4.03978 2.59235 4.47661 2.40232C4.91607 2.20979 5.41211 2.11353 5.96473 2.11353C6.52261 2.11353 7.01075 2.20979 7.42916 2.40232C7.84757 2.59485 8.17256 2.85489 8.40414 3.18245C8.63834 3.5075 8.75413 3.87256 8.7515 4.27762C8.75413 4.70769 8.61334 5.0665 8.32914 5.35404C8.04757 5.64159 7.68047 5.82412 7.22785 5.90163V5.96164C7.82257 6.03415 8.27519 6.23043 8.58571 6.55049C8.89886 6.86804 9.05412 7.2656 9.05149 7.74318C9.05412 8.18075 8.92123 8.56956 8.65281 8.90961C8.38703 9.24967 8.01994 9.51721 7.55153 9.71224C7.08312 9.90727 6.54629 10.0048 5.94105 10.0048Z" fill="black"/>
<path d="M27.999 1.65026C27.999 2.56168 27.2214 3.30053 26.2622 3.30053C25.303 3.30053 24.5254 2.56168 24.5254 1.65026C24.5254 0.738848 25.303 0 26.2622 0C27.2214 0 27.999 0.738848 27.999 1.65026Z" fill="black"/>
</svg>
