<svg width="24" height="24" viewBox="0 0 24 24" fill="none" xmlns="http://www.w3.org/2000/svg">
<g clip-path="url(#clip0_948_2690)">
<path d="M23.998 24C23.7378 21.9867 22.1493 19.726 20.7742 18.4892C19.3087 17.1711 17.4886 16.3644 15.712 15.5605V13.8279C16.5677 13.0184 17.1599 11.9331 17.3445 10.7156H18.1087C19.2716 10.7156 20.2178 9.76952 20.2178 8.6066C20.2178 7.44369 19.2716 6.49758 18.1087 6.49758H17.4057V3.56341C17.4057 1.59855 15.8071 0 13.8423 0H3.84558V0.703008C3.84558 2.72449 4.95366 4.49194 6.59425 5.43018V6.49762H5.89124C4.72832 6.49762 3.78222 7.44373 3.78222 8.60665V12.2591C3.78222 13.2574 4.17098 14.1959 4.87689 14.9018L5.41741 15.4423L6.41161 14.4481L5.87109 13.9076C5.43072 13.4672 5.18823 12.8818 5.18823 12.259V10.5947C5.40827 10.6727 5.64477 10.7156 5.89124 10.7156H6.65546C6.84002 11.9331 7.43224 13.0184 8.28798 13.8279V15.5605C6.14948 16.5281 4.02311 17.5522 2.43113 19.3304C1.20827 20.6963 0.573686 22.2904 0.00195312 24H23.998ZM18.1087 7.90364C18.4964 7.90364 18.8117 8.21901 18.8117 8.60665C18.8117 8.99429 18.4964 9.30966 18.1087 9.30966H17.4057V7.90364H18.1087ZM13.8423 1.40602C15.0318 1.40602 15.9997 2.37382 15.9997 3.56341V4.73856H13.9255C11.94 4.73856 10.2848 3.2973 9.95121 1.40602H13.8423ZM5.3129 1.40602H8.52926C8.69967 2.7212 9.34142 3.89054 10.2791 4.73856H9.28719C7.30171 4.73856 5.64645 3.2973 5.3129 1.40602ZM5.18828 8.60665C5.18828 8.21901 5.50365 7.90364 5.89129 7.90364H6.5943V9.30966H5.89129C5.5036 9.30966 5.18828 8.99429 5.18828 8.60665ZM8.00031 9.90197V6.14462H15.9997V9.90197C15.9997 12.1074 14.2054 13.9016 12 13.9016C9.79458 13.9016 8.00031 12.1073 8.00031 9.90197ZM12 15.3076C12.8244 15.3076 13.6061 15.1218 14.306 14.7904V16.0251C14.306 17.2966 13.2715 18.3311 12 18.3311C10.7285 18.3311 9.69405 17.2966 9.69405 16.0251V14.7904C10.3939 15.1218 11.1756 15.3076 12 15.3076ZM1.98903 22.594C3.1265 19.9734 5.53866 18.4093 8.43135 17.044C8.87542 18.5968 10.3066 19.7371 12 19.7371C13.6935 19.7371 15.1246 18.5968 15.5687 17.044C18.4614 18.4093 20.9204 19.9734 22.0579 22.594H1.98903Z" fill="#F3722A"/>
<path d="M15.8105 19.8538H18.47V21.2598H15.8105V19.8538Z" fill="#F3722A"/>
<path d="M12.0006 12.5705C12.8715 12.5705 13.6839 12.1806 14.2295 11.5009L13.133 10.6208C12.8557 10.9663 12.4429 11.1645 12.0006 11.1645C11.5583 11.1645 11.1454 10.9663 10.8681 10.6206L9.77148 11.5005C10.3171 12.1805 11.1296 12.5705 12.0006 12.5705Z" fill="#F3722A"/>
</g>
<defs>
<clipPath id="clip0_948_2690">
<rect width="24" height="24" fill="white"/>
</clipPath>
</defs>
</svg>
