<svg width="22" height="22" viewBox="0 0 22 22" fill="none" xmlns="http://www.w3.org/2000/svg">
<g clip-path="url(#clip0_665_10116)">
<path d="M5.06069 7.49141C4.89311 7.32383 4.62069 7.32383 4.45315 7.49141C4.28515 7.65941 4.28515 7.93141 4.45315 8.09899C4.62073 8.26699 4.89316 8.26699 5.06069 8.09899C5.22866 7.93141 5.22866 7.65941 5.06069 7.49141Z" fill="white"/>
<path d="M10.8797 19.238C11.0691 18.9813 11.1715 18.6722 11.1715 18.3471C11.1715 17.5179 10.4969 16.8433 9.66764 16.8433H2.3632C1.96131 16.8433 1.58366 16.9997 1.29976 17.2836C1.01574 17.5676 0.859334 17.9452 0.859334 18.3471C0.859334 18.6801 0.968303 18.988 1.15217 19.2374C0.467974 19.5972 0 20.3148 0 21.14V21.5697C0 21.807 0.192414 21.9994 0.429688 21.9994H11.6012C11.8384 21.9994 12.0308 21.807 12.0308 21.5697V21.14C12.0308 20.3151 11.5633 19.5979 10.8797 19.238ZM1.90739 17.8912C2.02903 17.7695 2.19094 17.7026 2.3632 17.7026H9.66764C10.023 17.7026 10.3121 17.9917 10.3121 18.347C10.3121 18.5193 10.2451 18.6812 10.1234 18.8029C10.0018 18.9246 9.83986 18.9916 9.6676 18.9916H2.3632C2.0078 18.9916 1.71871 18.7024 1.71871 18.3471C1.71871 18.1748 1.7857 18.0129 1.90739 17.8912ZM0.859334 21.14C0.859334 20.4292 1.43761 19.851 2.14836 19.851H2.3632H9.66764H9.88249C10.5932 19.851 11.1715 20.4292 11.1715 21.14H0.859334Z" fill="white"/>
<path d="M21.6004 18.0522C21.4545 17.826 21.2804 17.6261 21.0829 17.4578L19.0752 15.7067C19.0595 15.6832 19.0414 15.6608 19.0206 15.6401C18.9858 15.6052 18.9462 15.578 18.9042 15.5576L17.69 14.4987L12.0701 9.59632C12.3002 9.35582 12.4269 9.04133 12.4269 8.7069C12.4269 8.36238 12.2928 8.03861 12.049 7.79489C11.9427 7.68871 11.8219 7.60523 11.6927 7.54408L12.2127 7.02416C12.358 7.06279 12.5073 7.08255 12.6567 7.08255C13.0968 7.08251 13.5369 6.91502 13.8719 6.58003C14.1966 6.25532 14.3755 5.8237 14.3755 5.36466C14.3755 4.90562 14.1966 4.474 13.8719 4.14929L10.2261 0.503552C9.90137 0.178836 9.4697 0 9.01054 0C8.55159 0 8.12005 0.178836 7.79538 0.503552C7.34661 0.952318 7.19889 1.5895 7.35125 2.16279L2.16384 7.35016C2.0205 7.31205 1.87135 7.29194 1.71899 7.29194C1.25973 7.29194 0.828285 7.47065 0.503827 7.79506C-0.166315 8.4652 -0.166315 9.55562 0.503827 10.2258L4.1496 13.8716C4.48472 14.2067 4.92485 14.3742 5.36498 14.3742C5.80515 14.3742 6.24528 14.2067 6.58039 13.8716C7.02916 13.4228 7.17689 12.7857 7.02452 12.2124L7.54337 11.6935C7.60572 11.8237 7.69032 11.9438 7.79542 12.0489C8.03888 12.2924 8.36257 12.4265 8.70701 12.4265C9.04109 12.4265 9.35545 12.3 9.59629 12.0702L15.5821 18.9475C15.5986 18.9733 15.6179 18.9979 15.6404 19.0204C15.6481 19.0281 15.6562 19.0351 15.6643 19.042L17.448 21.0914C17.4924 21.1437 17.5398 21.1952 17.589 21.2444C18.0789 21.7341 18.7259 21.9999 19.4053 21.9999C19.525 21.9999 19.6459 21.9916 19.7669 21.9749C20.576 21.8629 21.2752 21.3789 21.6852 20.6468C22.1344 19.8444 22.101 18.8258 21.6004 18.0522ZM8.40309 1.11122C8.56547 0.948838 8.78126 0.859377 9.01058 0.859377C9.24021 0.859377 9.45613 0.948838 9.61846 1.11122L13.2643 4.75699C13.4267 4.91937 13.5161 5.13521 13.5161 5.3647C13.5161 5.5942 13.4267 5.81003 13.2642 5.97241C12.9293 6.30744 12.3842 6.30744 12.0493 5.97241L8.4033 2.32646C8.40322 2.32638 8.40317 2.32633 8.40309 2.32625C8.06806 1.99126 8.06806 1.4462 8.40309 1.11122ZM5.97273 13.264C5.63766 13.599 5.09234 13.5991 4.75727 13.264L1.11149 9.61819C0.776378 9.28307 0.776378 8.73788 1.11149 8.40273C1.27357 8.24061 1.48936 8.15132 1.71899 8.15132C1.94857 8.15132 2.16423 8.24056 2.32626 8.40256L5.97269 12.049C6.30776 12.3839 6.30776 12.929 5.97273 13.264ZM7.7818 10.2398L6.58035 11.4413L2.93419 7.79515L7.79538 2.93387L11.4415 6.58003L10.2379 7.78372C10.2339 7.78741 10.2301 7.79102 10.226 7.7951L7.79663 10.2245C7.7916 10.2295 7.78674 10.2346 7.7818 10.2398ZM9.31605 11.1362C9.31519 11.137 9.31437 11.1379 9.31351 11.1387L9.01093 11.4413C8.92976 11.5224 8.82186 11.5671 8.70696 11.5671C8.59211 11.5671 8.48417 11.5224 8.40305 11.4413C8.32179 11.3601 8.27706 11.252 8.27706 11.1371C8.27706 11.0246 8.31999 10.9188 8.39789 10.8389L10.8386 8.39826C11.0058 8.23558 11.2763 8.2376 11.4416 8.40273C11.5228 8.48394 11.5675 8.59196 11.5675 8.7069C11.5675 8.82176 11.5229 8.92948 11.4415 9.01065L11.1407 9.31147C11.1387 9.31349 11.1366 9.31556 11.1346 9.31762L9.31605 11.1362ZM10.2058 11.4617L11.4617 10.2059L16.7787 14.8437L14.8385 16.784L10.2058 11.4617ZM15.404 17.4337L17.4278 15.4099L18.0769 15.9761L15.9695 18.0836L15.404 17.4337ZM20.9355 20.227C20.6581 20.7221 20.1893 21.0489 19.6491 21.1237C19.1102 21.1982 18.5807 21.0207 18.1965 20.6367C18.1635 20.6037 18.1318 20.5693 18.1024 20.5344C18.101 20.5327 18.0996 20.5311 18.0982 20.5295L16.535 18.7333L18.726 16.5423L20.52 18.1071C20.5213 18.1083 20.5227 18.1094 20.5241 18.1106C20.6584 18.2248 20.7775 18.3619 20.8786 18.5186C21.2035 19.0207 21.2263 19.7073 20.9355 20.227Z" fill="white"/>
<path d="M8.09883 4.45324C7.93099 4.28544 7.659 4.28544 7.49116 4.45324L5.66808 6.27632C5.50029 6.44411 5.50029 6.71619 5.66808 6.88394C5.752 6.96786 5.86196 7.0098 5.97191 7.0098C6.08187 7.0098 6.19183 6.96782 6.27575 6.88394L8.09883 5.06086C8.26662 4.89311 8.26662 4.62107 8.09883 4.45324Z" fill="white"/>
</g>
<defs>
<clipPath id="clip0_665_10116">
<rect width="22" height="22" fill="white"/>
</clipPath>
</defs>
</svg>
