<svg width="23" height="23" viewBox="0 0 23 23" fill="none" xmlns="http://www.w3.org/2000/svg">
<path d="M5.36758 19.9333V19.1664C5.36758 16.6259 7.42707 14.5666 9.96758 14.5666H13.0342C15.5748 14.5666 17.6342 16.6259 17.6342 19.1664V19.9333M11.5009 5.3666C9.80724 5.3666 8.43424 6.73959 8.43424 8.43327C8.43424 10.1269 9.80724 11.4999 11.5009 11.4999C13.1946 11.4999 14.5676 10.1269 14.5676 8.43327C14.5676 6.73959 13.1946 5.3666 11.5009 5.3666ZM11.5009 22.2333C5.57306 22.2333 0.767578 17.4278 0.767578 11.4999C0.767578 5.57208 5.57306 0.766602 11.5009 0.766602C17.4288 0.766602 22.2342 5.57208 22.2342 11.4999C22.2342 17.4278 17.4288 22.2333 11.5009 22.2333Z" stroke="#F3722A" stroke-width="1.5" stroke-linecap="square"/>
</svg>
