<svg width="25" height="33" viewBox="0 0 25 33" fill="none" xmlns="http://www.w3.org/2000/svg">
<path d="M22.0564 0H3.48347C1.92992 0 0.666016 1.26391 0.666016 2.81745V29.2389C0.666016 30.7924 1.92992 32.0563 3.48347 32.0563H22.0564C23.61 32.0563 24.8739 30.7924 24.8739 29.2389V2.81745C24.8739 1.26391 23.6099 0 22.0564 0ZM4.49105 5.5316C4.49105 5.11837 4.82914 4.78028 5.24237 4.78028H20.5488C20.9621 4.78028 21.3002 5.11837 21.3002 5.5316V8.39594C21.3002 8.80917 20.9621 9.14726 20.5489 9.14726H5.24237C4.82914 9.14726 4.49105 8.80917 4.49105 8.39594V5.5316ZM13.6482 15.8025H11.8918C11.3731 15.8025 10.9527 15.382 10.9527 14.8633V13.5871C10.9527 13.0685 11.3731 12.648 11.8918 12.648H13.6482C14.1669 12.648 14.5874 13.0685 14.5874 13.5871V14.8633C14.5874 15.382 14.1669 15.8025 13.6482 15.8025ZM14.5874 19.6366V20.9128C14.5874 21.4315 14.1669 21.852 13.6482 21.852H11.8918C11.3731 21.852 10.9527 21.4315 10.9527 20.9128V19.6366C10.9527 19.1179 11.3731 18.6975 11.8918 18.6975H13.6482C14.1669 18.6975 14.5874 19.118 14.5874 19.6366ZM7.87431 26.9623C7.87431 27.481 7.45382 27.9015 6.93516 27.9015H5.17876C4.6601 27.9015 4.23961 27.481 4.23961 26.9623V25.6861C4.23961 25.1675 4.6601 24.747 5.17876 24.747H6.93516C7.45382 24.747 7.87431 25.1674 7.87431 25.6861V26.9623ZM7.87431 20.9128C7.87431 21.4315 7.45382 21.852 6.93516 21.852H5.17876C4.6601 21.852 4.23961 21.4315 4.23961 20.9128V19.6366C4.23961 19.118 4.6601 18.6975 5.17876 18.6975H6.93516C7.45382 18.6975 7.87431 19.118 7.87431 19.6366V20.9128ZM7.87431 14.8633C7.87431 15.382 7.45382 15.8025 6.93516 15.8025H5.17876C4.6601 15.8025 4.23961 15.382 4.23961 14.8633V13.5871C4.23961 13.0685 4.6601 12.648 5.17876 12.648H6.93516C7.45382 12.648 7.87431 13.0685 7.87431 13.5871V14.8633ZM21.3002 26.9623C21.3002 27.481 20.8797 27.9015 20.3611 27.9015H11.8917C11.3731 27.9015 10.9526 27.481 10.9526 26.9623V25.6861C10.9526 25.1674 11.373 24.747 11.8917 24.747H20.3611C20.8797 24.747 21.3002 25.1675 21.3002 25.6861V26.9623ZM21.3002 20.9128C21.3002 21.4315 20.8797 21.852 20.3611 21.852H18.6047C18.086 21.852 17.6655 21.4315 17.6655 20.9128V19.6366C17.6655 19.118 18.086 18.6975 18.6047 18.6975H20.3611C20.8797 18.6975 21.3002 19.118 21.3002 19.6366V20.9128ZM21.3002 14.8633C21.3002 15.382 20.8797 15.8025 20.3611 15.8025H18.6047C18.086 15.8025 17.6655 15.382 17.6655 14.8633V13.5871C17.6655 13.0685 18.086 12.648 18.6047 12.648H20.3611C20.8797 12.648 21.3002 13.0685 21.3002 13.5871V14.8633Z" fill="black"/>
</svg>
