<svg width="32" height="32" viewBox="0 0 32 32" fill="none" xmlns="http://www.w3.org/2000/svg">
<g clip-path="url(#clip0_665_12927)">
<path d="M29.305 20.3838C27.4037 20.3838 25.5368 20.0864 23.7678 19.5018C22.9009 19.2061 21.8353 19.4774 21.3062 20.0207L17.8144 22.6567C13.765 20.4951 11.2706 18.0015 9.13849 13.9824L11.6969 10.5816C12.3615 9.91781 12.5999 8.94817 12.3143 8.03836C11.7272 6.26 11.4289 4.39406 11.4289 2.49197C11.429 1.11788 10.3111 0 8.93712 0H3.23407C1.86007 0 0.742188 1.11788 0.742188 2.49189C0.742188 18.2416 13.5553 31.0546 29.305 31.0546C30.679 31.0546 31.7968 29.9367 31.7968 28.5627V22.8756C31.7968 21.5017 30.6789 20.3838 29.305 20.3838Z" fill="black"/>
</g>
<defs>
<clipPath id="clip0_665_12927">
<rect width="31.0546" height="31.0546" fill="white" transform="translate(0.742188)"/>
</clipPath>
</defs>
</svg>
