<svg width="46" height="35" viewBox="0 0 46 35" fill="none" xmlns="http://www.w3.org/2000/svg">
<path d="M8 33V31.4496C8 27.1694 11.3579 23.7 15.5 23.7C19.6421 23.7 23 27.1687 23 31.4489V33M27.5 11.3H36.5M27.5 20.6H36.5M15.5 8.2C13.0147 8.2 11 10.2819 11 12.85C11 15.4181 13.0147 17.5 15.5 17.5C17.9853 17.5 20 15.4181 20 12.85C20 10.2819 17.9853 8.2 15.5 8.2ZM5 2H41C42.6569 2 44 3.38792 44 5.1V29.9C44 31.6121 42.6569 33 41 33H5C3.34315 33 2 31.6121 2 29.9V5.1C2 3.38792 3.34315 2 5 2Z" stroke="#FF5C00" stroke-width="2.6875" stroke-linecap="round" stroke-linejoin="round"/>
</svg>
