<svg width="17" height="18" viewBox="0 0 17 18" fill="none" xmlns="http://www.w3.org/2000/svg">
<path d="M4.93015 4.20775V2.58984C4.93015 1.99414 5.41306 1.51123 6.00875 1.51123H7.62666M13.0197 1.51123H14.6376C15.2333 1.51123 15.7162 1.99414 15.7162 2.58984V4.20775M8.70527 1.51123H11.9411M13.0197 12.2973H14.6376C15.2333 12.2973 15.7162 11.8144 15.7162 11.2187V9.60078M15.7162 5.28635V8.52217M3.31224 5.82566H1.69433C1.09863 5.82566 0.615723 6.30856 0.615723 6.90426V8.52217M0.615723 13.9152V15.5331C0.615723 16.1288 1.09863 16.6117 1.69433 16.6117H3.31224M0.615723 9.60078V12.8366M8.70527 16.6117H10.3232C10.9189 16.6117 11.4018 16.1288 11.4018 15.5331V13.9152M4.39084 16.6117H7.62666M4.93015 5.82566V12.2973H11.4018V5.82566H4.93015Z" stroke="#435572" stroke-width="1.06234"/>
</svg>
