<svg width="16" height="16" viewBox="0 0 16 16" fill="none" xmlns="http://www.w3.org/2000/svg">
<rect width="14.951" height="14.951" transform="translate(0.793945 0.888672)" fill="white"/>
<path d="M1.29199 6.37087L1.00669 5.97145C0.877697 6.06358 0.801141 6.21235 0.801141 6.37087H1.29199ZM8.26912 1.38721L8.55442 0.987785C8.38375 0.865879 8.15448 0.865879 7.98381 0.987785L8.26912 1.38721ZM15.2462 6.37087H15.7371C15.7371 6.21235 15.6605 6.06358 15.5315 5.97145L15.2462 6.37087ZM3.28546 8.36433V7.87348H2.7946V8.36433H3.28546ZM13.2528 8.36433H13.7436V7.87348H13.2528V8.36433ZM1.78284 15.8398V6.37087H0.801141V15.8398H1.78284ZM1.57729 6.77029L8.55442 1.78663L7.98381 0.987785L1.00669 5.97145L1.57729 6.77029ZM7.98381 1.78663L14.9609 6.77029L15.5315 5.97145L8.55442 0.987785L7.98381 1.78663ZM14.7554 6.37087V15.8398H15.7371V6.37087H14.7554ZM3.77631 15.8398V8.36433H2.7946V15.8398H3.77631ZM3.28546 8.85518H13.2528V7.87348H3.28546V8.85518ZM12.7619 8.36433V15.8398H13.7436V8.36433H12.7619ZM3.28546 11.8454H13.2528V10.8637H3.28546V11.8454ZM6.77402 13.8388H9.76421V12.8571H6.77402V13.8388Z" fill="black"/>
</svg>
