<svg width="32" height="34" viewBox="0 0 32 34" fill="none" xmlns="http://www.w3.org/2000/svg">
<path d="M6.51855 14.6581C6.51855 14.001 7.05128 13.4683 7.70842 13.4683H12.4679C13.125 13.4683 13.6577 14.001 13.6577 14.6581C13.6577 15.3153 13.125 15.848 12.4679 15.848H7.70842C7.05128 15.848 6.51855 15.3153 6.51855 14.6581Z" fill="white"/>
<path d="M7.70842 18.2275C7.05128 18.2275 6.51855 18.7602 6.51855 19.4174C6.51855 20.0746 7.05128 20.6073 7.70842 20.6073H19.6071C20.2642 20.6073 20.7969 20.0746 20.7969 19.4174C20.7969 18.7602 20.2642 18.2275 19.6071 18.2275H7.70842Z" fill="white"/>
<path d="M27.5878 10.74C28.0525 10.2753 28.0525 9.52192 27.5878 9.05724C27.1232 8.59257 26.3698 8.59257 25.9051 9.05724L23.5028 11.4595L23.0512 10.5564C22.7573 9.96857 22.0426 9.73034 21.4549 10.0243C20.8671 10.3182 20.6289 11.0328 20.9227 11.6206L22.1126 14.0003C22.2837 14.3424 22.6087 14.5814 22.9863 14.6427C23.3638 14.704 23.7478 14.58 24.0182 14.3096L27.5878 10.74Z" fill="white"/>
<path fill-rule="evenodd" clip-rule="evenodd" d="M0.569336 3.94924C0.569336 1.97781 2.1675 0.379639 4.13893 0.379639H20.7971C23.3451 0.379639 25.519 1.98153 26.3667 4.2332C29.3361 5.09807 31.5058 7.83986 31.5058 11.0884C31.5058 14.1968 29.5192 16.8413 26.7464 17.8214V27.7465C26.7464 31.0322 24.0827 33.6959 20.7971 33.6959H4.13893C2.1675 33.6959 0.569336 32.0978 0.569336 30.1263V3.94924ZM20.7971 2.75937C21.879 2.75937 22.8485 3.24071 23.503 4.00094C19.9675 4.42723 17.2275 7.43785 17.2275 11.0884C17.2275 15.0313 20.4238 18.2276 24.3666 18.2276V24.177H2.94907V3.94924C2.94907 3.2921 3.48179 2.75937 4.13893 2.75937H20.7971ZM24.3666 27.7465V26.5567H2.94907V30.1263C2.94907 30.7834 3.48179 31.3161 4.13893 31.3161H20.7971C22.7685 31.3161 24.3666 29.718 24.3666 27.7465ZM19.6072 11.0884C19.6072 8.45985 21.7381 6.32897 24.3666 6.32897C26.9952 6.32897 29.1261 8.45985 29.1261 11.0884C29.1261 13.717 26.9952 15.8479 24.3666 15.8479C21.7381 15.8479 19.6072 13.717 19.6072 11.0884Z" fill="white"/>
</svg>
