<svg width="16" height="16" viewBox="0 0 16 16" fill="none" xmlns="http://www.w3.org/2000/svg">
<path d="M1 6L0.709381 5.59313L0.5 5.74269V6H1ZM8 1L8.29062 0.593133C8.11677 0.468956 7.88323 0.468956 7.70938 0.593133L8 1ZM15 6H15.5V5.74269L15.2906 5.59313L15 6ZM3 9V8.5H2.5V9H3ZM7 9H7.5V8.5H7V9ZM1.5 15.5V6H0.5V15.5H1.5ZM1.29062 6.40687L8.29062 1.40687L7.70938 0.593133L0.709381 5.59313L1.29062 6.40687ZM7.70938 1.40687L14.7094 6.40687L15.2906 5.59313L8.29062 0.593133L7.70938 1.40687ZM14.5 6V15.5H15.5V6H14.5ZM3.5 15.5V9H2.5V15.5H3.5ZM3 9.5H7V8.5H3V9.5ZM6.5 9V15.5H7.5V9H6.5ZM5.5 12.5H7V11.5H5.5V12.5ZM11.5 8.5V12.5H12.5V8.5H11.5ZM13.5 2.5V5H14.5V2.5H13.5Z" fill="white"/>
</svg>
