<svg width="21" height="21" viewBox="0 0 21 21" fill="none" xmlns="http://www.w3.org/2000/svg">
<path fill-rule="evenodd" clip-rule="evenodd" d="M1.30912 20.0098L7.02754 16.7421L13.593 20.0248C13.7066 20.0846 13.8349 20.1202 13.971 20.1246C13.9807 20.1249 13.9903 20.1251 14 20.1251C14.0028 20.1251 14.0055 20.1251 14.0083 20.125C14.1687 20.1235 14.3187 20.0789 14.4474 20.0022L20.5591 16.5098C20.8318 16.354 21 16.0641 21 15.7501V1.75007C21 1.07823 20.2742 0.657031 19.6909 0.99036L13.9725 4.25802L7.40706 0.975323C7.28749 0.912369 7.15157 0.876285 7.00733 0.875102L7 0.875072C6.83649 0.875072 6.68346 0.919919 6.55254 0.997983L0.440878 4.49036C0.16825 4.64615 0 4.93607 0 5.25007V19.2501C0 19.9219 0.725797 20.3431 1.30912 20.0098ZM14.875 17.7423L19.25 15.2423V3.25785L14.875 5.75785V17.7423ZM13.125 5.79085L7.875 3.16585V15.2093L13.125 17.8343V5.79085ZM1.75 5.75785L6.125 3.25785V15.2423L1.75 17.7423V5.75785Z" fill="#404040"/>
<mask id="mask0_665_12937" style="mask-type:luminance" maskUnits="userSpaceOnUse" x="0" y="0" width="21" height="21">
<path fill-rule="evenodd" clip-rule="evenodd" d="M1.30912 20.0098L7.02754 16.7421L13.593 20.0248C13.7066 20.0846 13.8349 20.1202 13.971 20.1246C13.9807 20.1249 13.9903 20.1251 14 20.1251C14.0028 20.1251 14.0055 20.1251 14.0083 20.125C14.1687 20.1235 14.3187 20.0789 14.4474 20.0022L20.5591 16.5098C20.8318 16.354 21 16.0641 21 15.7501V1.75007C21 1.07823 20.2742 0.657031 19.6909 0.99036L13.9725 4.25802L7.40706 0.975323C7.28749 0.912369 7.15157 0.876285 7.00733 0.875102L7 0.875072C6.83649 0.875072 6.68346 0.919919 6.55254 0.997983L0.440878 4.49036C0.16825 4.64615 0 4.93607 0 5.25007V19.2501C0 19.9219 0.725797 20.3431 1.30912 20.0098ZM14.875 17.7423L19.25 15.2423V3.25785L14.875 5.75785V17.7423ZM13.125 5.79085L7.875 3.16585V15.2093L13.125 17.8343V5.79085ZM1.75 5.75785L6.125 3.25785V15.2423L1.75 17.7423V5.75785Z" fill="white"/>
</mask>
<g mask="url(#mask0_665_12937)">
<rect width="21" height="21" fill="#404040"/>
</g>
</svg>
