<svg id="Group_29" data-name="Group 29" xmlns="http://www.w3.org/2000/svg" xmlns:xlink="http://www.w3.org/1999/xlink" width="46.11" height="46.164" viewBox="0 0 46.11 46.164">
  <defs>
    <clipPath id="clip-path">
      <rect id="Rectangle_663" data-name="Rectangle 663" width="46.11" height="46.164" fill="none"/>
    </clipPath>
  </defs>
  <g id="Group_28" data-name="Group 28" clip-path="url(#clip-path)">
    <path id="Path_6" data-name="Path 6" d="M.007,23c1.353-.278,2.709-.542,4.058-.838A38.434,38.434,0,0,0,13.1,19.28a13.971,13.971,0,0,0,6.787-7.47A55.839,55.839,0,0,0,22.8,1.026,3.347,3.347,0,0,1,23.124,0c.224,1.112.437,2.227.673,3.336a48.124,48.124,0,0,0,2.461,8.527A14.227,14.227,0,0,0,34.2,19.838a56.233,56.233,0,0,0,10.9,2.951,3.369,3.369,0,0,1,1.008.32c-1.482.309-2.968.6-4.445.931A37.175,37.175,0,0,0,33,26.854a13.937,13.937,0,0,0-6.724,7.369,55.809,55.809,0,0,0-2.981,11.084,2.708,2.708,0,0,1-.279.858c-.155-.78-.3-1.562-.466-2.34a53.485,53.485,0,0,0-2.626-9.448,14.306,14.306,0,0,0-8.159-8.167A58.536,58.536,0,0,0,.851,23.292L0,23.123.007,23" transform="translate(0 -0.001)"/>
  </g>
</svg>
