<svg width="284" height="284" viewBox="0 0 284 284" fill="none" xmlns="http://www.w3.org/2000/svg">
<g filter="url(#filter0_d_665_11387)">
<path d="M3 5.86829C3 2.62733 5.62732 0 8.86829 0H75.4063C78.6473 0 81.2746 2.62732 81.2746 5.86829V54.4557C81.2746 57.6966 83.902 60.3239 87.1429 60.3239H275.16C278.401 60.3239 281.028 62.9513 281.028 66.1922V272.512C281.028 275.753 278.401 278.38 275.16 278.38H8.86828C5.62731 278.38 3 275.753 3 272.512V5.86829Z" fill="white"/>
<path d="M3.33099 5.86829C3.33099 2.81013 5.81012 0.330986 8.86829 0.330986H75.4063C78.4645 0.330986 80.9437 2.81012 80.9437 5.86829V54.4557C80.9437 57.8794 83.7192 60.6549 87.1429 60.6549H275.16C278.218 60.6549 280.697 63.1341 280.697 66.1922V272.512C280.697 275.57 278.218 278.049 275.16 278.049H8.86828C5.81011 278.049 3.33099 275.57 3.33099 272.512V5.86829Z" stroke="#FF4646" stroke-width="0.661972"/>
</g>
<defs>
<filter id="filter0_d_665_11387" x="0.352113" y="0" width="283.324" height="283.676" filterUnits="userSpaceOnUse" color-interpolation-filters="sRGB">
<feFlood flood-opacity="0" result="BackgroundImageFix"/>
<feColorMatrix in="SourceAlpha" type="matrix" values="0 0 0 0 0 0 0 0 0 0 0 0 0 0 0 0 0 0 127 0" result="hardAlpha"/>
<feOffset dy="2.64789"/>
<feGaussianBlur stdDeviation="1.32394"/>
<feComposite in2="hardAlpha" operator="out"/>
<feColorMatrix type="matrix" values="0 0 0 0 0.952941 0 0 0 0 0.447059 0 0 0 0 0.160784 0 0 0 1 0"/>
<feBlend mode="normal" in2="BackgroundImageFix" result="effect1_dropShadow_665_11387"/>
<feBlend mode="normal" in="SourceGraphic" in2="effect1_dropShadow_665_11387" result="shape"/>
</filter>
</defs>
</svg>
