<svg width="128" height="93" viewBox="0 0 128 93" fill="none" xmlns="http://www.w3.org/2000/svg">
<g opacity="0.2">
<path d="M81.9256 0C56.4777 0 35.8645 20.6132 35.8645 46.0611C35.8645 71.509 56.4777 92.1662 81.9256 92.1662C107.374 92.1662 127.987 71.5529 127.987 46.1051C127.987 20.6572 107.374 0 81.9256 0ZM81.9256 89.9247C57.7084 89.9247 38.106 70.2784 38.106 46.1051C38.106 21.8878 57.7523 2.28548 81.9256 2.28548C106.143 2.28548 125.745 21.9318 125.745 46.1051C125.789 70.2784 106.143 89.9247 81.9256 89.9247Z" fill="#EDE9E9"/>
<path d="M62.9824 49.797V52.7858L56.6973 44.8305L50.4123 52.7858L44.0833 44.8305L37.7982 52.7858L31.4692 44.8305L25.1842 52.7858L18.8991 44.8305L12.5701 52.7858L6.28505 44.8305L0 52.7858V49.797L6.28505 41.8418L12.5701 49.797L18.8991 41.8418L25.1842 49.797L31.4692 41.8418L37.7982 49.797L44.0833 41.8418L50.3683 49.797L56.6973 41.8418L62.9824 49.797Z" fill="#EDE9E9"/>
</g>
</svg>
